<svg width="400" height="49" viewBox="0 0 400 49" fill="none" xmlns="http://www.w3.org/2000/svg">
<path d="M0 43.1962C0.281891 43.1471 0.566396 43.1147 0.85206 43.099C12.4079 43.0937 23.9638 43.0937 35.5196 43.099H36.4415V36.0688H35.6967C26.7118 36.0688 17.7265 36.0688 8.74069 36.0688C6.68769 36.0688 4.75814 35.5763 3.105 34.2876C2.45769 33.8004 1.93102 33.1693 1.56607 32.4438C1.20112 31.7182 1.00774 30.9176 1.001 30.1046C0.945986 27.9793 0.958067 25.8446 1.08957 23.7234C1.22375 21.4429 2.49983 19.8709 4.55551 18.929C6.23548 18.1599 8.03489 17.9534 9.84502 17.948C18.2717 17.9228 26.6984 17.9228 35.1251 17.948C37.9188 17.9615 40.526 18.6227 42.5387 20.7817C43.2476 21.5271 43.7709 22.4306 44.0658 23.4184H9.67863V30.0303H10.4663C18.9815 30.0303 27.4982 30.0128 36.0148 30.0425C38.1308 30.0425 40.1892 30.4473 42.0302 31.5862C43.9503 32.7682 44.9285 34.5076 44.9366 36.7759C44.9366 38.6151 44.9366 40.4529 44.9366 42.2921C44.9366 45.7911 43.1198 48.0364 39.6887 48.7003C38.77 48.8811 37.8365 48.9755 36.9004 48.9823C27.4673 49.0021 18.0347 49.0053 8.60248 48.9918C6.63401 48.9918 4.73667 48.649 3.02584 47.6033C1.54311 46.6951 0.652136 45.339 0.157 43.6901C0.112881 43.5702 0.0608776 43.4535 0.00134314 43.3406L0 43.1962Z" fill="#474862"/>
<path d="M67.321 48.9526H57.9483V17.9305H58.6931C69.5123 17.9305 80.3314 17.9143 91.152 17.9413C93.5512 17.948 95.9155 18.2827 98.0852 19.4256C100.462 20.6765 101.86 22.6317 102.021 25.3332C102.113 26.9898 102.099 28.6507 101.979 30.3056C101.731 33.9206 99.4807 35.8596 96.3435 36.5721C94.8217 36.9175 93.2675 37.0985 91.7075 37.1119C83.8618 37.1645 76.0081 37.1362 68.1691 37.1362H67.3224L67.321 48.9526ZM67.3385 31.3392C67.5223 31.35 67.6323 31.3622 67.741 31.3622C75.3447 31.3622 82.9449 31.3586 90.5414 31.3514C91.1204 31.3379 91.6949 31.2462 92.2496 31.0788C93.1204 30.8346 93.6867 30.2287 93.7632 29.3138C93.8575 28.2443 93.8902 27.1702 93.8611 26.0969C93.8249 24.9472 93.3043 24.0485 92.1168 23.7598C91.3622 23.5616 90.5872 23.4529 89.8075 23.4359C82.52 23.4116 75.2338 23.4211 67.9463 23.4224C67.7531 23.4224 67.5599 23.4467 67.3371 23.4616L67.3385 31.3392Z" fill="#474862"/>
<path d="M133.154 36.873C132.149 35.4899 131.234 34.2283 130.319 32.9666C128.189 30.0317 126.07 27.0901 123.924 24.1673C123.655 23.7935 123.623 23.5736 123.933 23.1985C125.714 21.0395 127.462 18.8602 129.287 16.6068L153.145 48.9823H152.017C148.843 48.9823 145.669 48.9756 142.49 48.9904C142.317 49.005 142.142 48.9713 141.986 48.893C141.831 48.8147 141.699 48.6948 141.606 48.5465C140.229 46.6142 138.815 44.7102 137.446 42.7712C137.154 42.3569 136.851 42.2112 136.349 42.2112C127.297 42.2274 118.244 42.2314 109.192 42.2233H108.238C109.413 40.9576 110.552 39.9078 111.475 38.6933C112.594 37.2198 113.917 36.7786 115.758 36.8244C121.253 36.9594 126.755 36.873 132.252 36.873H133.154Z" fill="#474862"/>
<path d="M205.938 43.0721C205.599 46.0407 203.577 48.1484 200.57 48.6882C199.583 48.8683 198.582 48.9627 197.578 48.9702C188.345 48.99 179.113 48.99 169.88 48.9702C167.534 48.9702 165.31 48.4628 163.465 46.876C162.85 46.3686 162.357 45.7297 162.019 45.0061C161.682 44.2824 161.509 43.4922 161.514 42.6929C161.485 36.5708 161.495 30.4487 161.507 24.3252C161.507 21.81 163.105 19.6024 165.777 18.7496C167.234 18.2653 168.756 18.002 170.291 17.9683C179.097 17.8968 187.905 17.917 196.712 17.944C198.796 17.9507 200.852 18.2301 202.736 19.2435C204.189 20.0261 205.253 21.1542 205.801 22.737C205.87 22.9407 205.912 23.1526 205.982 23.4117H171.073V43.0734L205.938 43.0721Z" fill="#474862"/>
<path d="M228.322 33.7277V43.0788H260.496V48.9257H218.819V28.4286H247.08V33.7277H228.322Z" fill="#474862"/>
<path d="M218.803 23.3725V17.9305H219.537C233.104 17.9305 246.671 17.9255 260.237 17.9156C260.863 17.9156 261.032 18.0911 261.016 18.705C260.974 20.246 261.002 21.7884 261.002 23.3725H218.803Z" fill="#474862"/>
<path d="M298.54 25.6003C295.958 27.2466 293.409 28.8874 290.835 30.504C290.737 30.5532 290.629 30.5789 290.52 30.5789C290.41 30.5789 290.302 30.5532 290.205 30.504C284.593 26.4019 278.99 22.2876 273.394 18.1612C273.344 18.1084 273.299 18.0506 273.26 17.9885C273.43 17.9601 273.601 17.9408 273.773 17.9305C278.335 17.9305 282.894 17.9327 287.45 17.9372C287.712 17.9331 287.97 18.0053 288.192 18.145C291.618 20.5793 295.036 23.0239 298.445 25.4789C298.482 25.5144 298.514 25.5553 298.54 25.6003Z" fill="#474862"/>
<path d="M400 0C398.991 0.134938 397.987 0.252336 396.975 0.381876C393.393 0.844712 389.786 1.17666 386.233 1.80547C380.882 2.75003 375.536 3.76611 370.246 4.99944C356.094 8.30001 342.433 13.0458 329.335 19.3824C318.501 24.6261 308.303 30.9021 298.91 38.4464C294.974 41.5845 291.222 44.9496 287.673 48.5249C287.534 48.6798 287.362 48.802 287.171 48.8827C286.98 48.9634 286.773 49.0007 286.566 48.9918C282.028 48.9756 277.489 48.9823 272.951 48.9823H272.166C273.072 48.0904 273.861 47.2889 274.674 46.5157C284.604 37.0701 295.875 29.5527 308.003 23.2767C322.107 15.9739 336.967 10.7033 352.362 6.9169C358.92 5.29765 365.531 3.92668 372.221 2.96053C377.01 2.26965 381.809 1.63005 386.617 1.0903C390.34 0.671991 394.085 0.443944 397.821 0.125491C398.015 0.096735 398.207 0.0548096 398.395 0H400Z" fill="#474862"/>
<path d="M329.638 48.9824H328.912C324.399 48.9824 319.885 48.9792 315.371 48.9729C315.067 48.9795 314.767 48.897 314.509 48.7354C310.313 45.6903 306.124 42.6354 301.942 39.5705C301.875 39.5081 301.814 39.4409 301.758 39.3694C302.072 39.1171 302.368 38.8621 302.682 38.63C304.695 37.1457 306.717 35.6681 308.721 34.177C309.049 33.9341 309.281 33.8869 309.649 34.1581C316.147 38.979 322.654 43.7918 329.169 48.5965C329.292 48.6747 329.4 48.7773 329.638 48.9824Z" fill="#474862"/>
</svg>
